<svg width="19" height="19" viewBox="0 0 19 19" fill="none" xmlns="http://www.w3.org/2000/svg">
<path d="M18.1733 6.62848L12.941 6.13373C12.6112 6.10374 12.3262 5.89385 12.1914 5.57901L10.3173 1.03628C10.0174 0.286654 8.95281 0.286654 8.65296 1.03628L6.79388 5.57901C6.67393 5.89385 6.37408 6.10374 6.04424 6.13373L0.81182 6.62848C0.0322038 6.70345 -0.282641 7.67796 0.302071 8.2027L4.24513 11.666C4.50001 11.8909 4.60495 12.2207 4.52999 12.5505L3.34557 17.4079C3.16566 18.1727 3.99026 18.8022 4.67992 18.3976L9.04277 15.8337C9.32763 15.6688 9.67246 15.6688 9.95732 15.8337L14.3203 18.3976C15.01 18.8022 15.8346 18.1877 15.6545 17.4079L14.4851 12.5505C14.4101 12.2207 14.5151 11.8909 14.7699 11.666L18.713 8.2027C19.2827 7.67796 18.9529 6.70345 18.1733 6.62848Z" fill="#00D7FF"/>
</svg>
