<svg width="16" height="16" viewBox="0 0 16 16" fill="none" xmlns="http://www.w3.org/2000/svg">
<path d="M1.16007 7.23997H7.23995V1.15995C7.23995 0.740518 7.58048 0.399994 8.00005 0.399994C8.41947 0.399994 8.76 0.740518 8.76 1.15995V7.23997H14.84C15.2595 7.23997 15.6 7.5805 15.6 7.99992C15.6 8.41949 15.2595 8.76001 14.84 8.76001H8.76V14.8399C8.76 15.2595 8.41947 15.6 8.00005 15.6C7.58048 15.6 7.23995 15.2595 7.23995 14.8399V8.76001H1.16007C0.740499 8.76001 0.399976 8.41949 0.399976 7.99992C0.399976 7.5805 0.740499 7.23997 1.16007 7.23997Z" fill="white"/>
</svg>
