<svg width="27" height="27" viewBox="0 0 27 27" fill="none" xmlns="http://www.w3.org/2000/svg">
<g clip-path="url(#clip0_24_13481)" filter="url(#filter0_d_24_13481)">
<path d="M22.1733 7.62848L16.941 7.13373C16.6112 7.10374 16.3262 6.89385 16.1914 6.57901L14.3173 2.03628C14.0174 1.28665 12.9528 1.28665 12.653 2.03628L10.7939 6.57901C10.6739 6.89385 10.3741 7.10374 10.0442 7.13373L4.81182 7.62848C4.0322 7.70345 3.71736 8.67796 4.30207 9.2027L8.24513 12.666C8.50001 12.8909 8.60495 13.2207 8.52999 13.5505L7.34557 18.4079C7.16566 19.1727 7.99026 19.8022 8.67992 19.3976L13.0428 16.8337C13.3276 16.6688 13.6725 16.6688 13.9573 16.8337L18.3203 19.3976C19.01 19.8022 19.8346 19.1877 19.6545 18.4079L18.4851 13.5505C18.4101 13.2207 18.5151 12.8909 18.7699 12.666L22.713 9.2027C23.2827 8.67796 22.9529 7.70345 22.1733 7.62848Z" fill="#00D7FF"/>
</g>
<defs>
<filter id="filter0_d_24_13481" x="0" y="0" width="27" height="27" filterUnits="userSpaceOnUse" color-interpolation-filters="sRGB">
<feFlood flood-opacity="0" result="BackgroundImageFix"/>
<feColorMatrix in="SourceAlpha" type="matrix" values="0 0 0 0 0 0 0 0 0 0 0 0 0 0 0 0 0 0 127 0" result="hardAlpha"/>
<feOffset dy="3"/>
<feGaussianBlur stdDeviation="2"/>
<feColorMatrix type="matrix" values="0 0 0 0 0 0 0 0 0 0.843137 0 0 0 0 1 0 0 0 0.25 0"/>
<feBlend mode="normal" in2="BackgroundImageFix" result="effect1_dropShadow_24_13481"/>
<feBlend mode="normal" in="SourceGraphic" in2="effect1_dropShadow_24_13481" result="shape"/>
</filter>
<clipPath id="clip0_24_13481">
<rect width="19" height="19" fill="white" transform="translate(4 1)"/>
</clipPath>
</defs>
</svg>
